<?xml version="1.0" encoding="utf-8"?>
<!-- Generator: Adobe Illustrator 22.1.0, SVG Export Plug-In . SVG Version: 6.00 Build 0)  -->
<svg version="1.1" id="Camada_1" xmlns="http://www.w3.org/2000/svg" xmlns:xlink="http://www.w3.org/1999/xlink" x="0px" y="0px"
	 viewBox="0 0 80 80" style="enable-background:new 0 0 80 80;" xml:space="preserve">
<style type="text/css">
	.st0{fill:#944854;}
	.st1{fill:#723842;}
	.st2{fill:#5A2E35;}
	.st3{fill:#67343C;}
	.st4{fill:#4E292F;}
	.st5{fill:#432429;}
</style>
<g>
	<g>
		<path class="st0" d="M72.7,40.2c0,7.3-2.4,14.1-6.5,19.6c-6,8-15.5,13.2-26.3,13.2C21.8,73,7.2,58.3,7.2,40.2
			c0-9.5,4.1-18.1,10.6-24.1c5.8-5.4,13.6-8.6,22.2-8.6c0.8,0,1.6,0,2.4,0.1c15,1.1,27.3,12.3,29.8,26.9
			C72.5,36.4,72.7,38.3,72.7,40.2z"/>
	</g>
	<path class="st1" d="M72.7,40.2C72.7,58.3,58,73,39.9,73S7.2,58.3,7.2,40.2S21.8,7.5,39.9,7.5c0.8,0,1.6,0,2.4,0.1
		c0,0.1,0.1,0.2,0.1,0.4c0.6,3.5-2.7,6.4-6,7.6c-3.3,1.2-7,1.4-9.9,3.5c-3.4,2.4-4.9,7.4-3.2,11.3c0.7,1.6,1.7,2.9,2.2,4.6
		c0.9,2.7,0,5.7-0.5,8.5c-0.5,2.8-0.6,6.1,1.4,8.2c3.5,3.7,11,1.1,13.9,5.4c1.1,1.6,1.1,3.8,2.5,5.2c1.9,2,5.4,1.1,7.7-0.4
		c2.4-1.5,4.6-3.5,7.4-3.6c1.5,0,3.2,0.6,4.5-0.2c0.6-0.3,1-0.9,1.3-1.4c4.5-6.5,7.4-14.2,8.3-22.1C72.5,36.4,72.7,38.3,72.7,40.2z"
		/>
	<path class="st2" d="M66.2,59.8c-6,8-15.5,13.2-26.3,13.2C21.8,73,7.2,58.3,7.2,40.2c0-9.5,4.1-18.1,10.6-24.1
		c0.6,1.3,0.9,2.8,0.8,4.2c-0.1,2.4-1,4.6-1.9,6.8c-1.2,3-2.4,6-3.6,9c-0.6,1.6-1.3,3.2-1.6,4.9c-0.6,3.7,0.6,7.7,3.2,10.4
		c3.1,3.3,8.1,4.9,9.7,9.1c0.5,1.2,0.6,2.7,1.5,3.7c2,2.3,5.7,0.8,8.8,1.3c3.1,0.5,5.7,3.2,8.9,3.2c2.5,0,4.7-1.7,6.7-3.2
		c4.5-3.4,9.8-6.5,15.4-5.8C65.8,59.7,66,59.7,66.2,59.8z"/>
	<path class="st3" d="M69,30.7c0.5-0.7,1-1.4,0.8-2.2c-0.7-0.5-1.1-1.3-1.4-2.2c-0.6-1.8-1.3-3.6-1.9-5.4c-0.2-0.5-0.5-1.2-1-1.3
		c-0.2,0-0.5,0-0.7,0.1c-0.6,0.1-1.3,0.2-1.9,0.2c-1.4,0-2.4,1.3-2.1,2.6c0,0,0,0,0,0c0.2,0.9,0.9,1.6,1.3,2.4
		c0.6,1.3,0.4,2.8,0.5,4.3c0.1,1.4,0.7,3.1,2.1,3.5c0.3,0.1,0.6,0.1,0.8,0.1c0.1,0,0.2,0,0.3,0.1c0.8,0.2,1.6-0.2,2.1-0.9L69,30.7z"
		/>
	<path class="st3" d="M46.7,27c0.8,0.7,0.9,2.1,0.2,2.9c-0.8,0.8-1.6,1.5-2.6,1.8C43.7,32,43,32,42.4,32.1c-2,0.3-3.9,0.5-5.9,0.8
		c-0.8,0.1-1.7,0.2-2.5,0c0,0,0,0,0,0c-1.2-0.3-1.7-1.8-1-2.9c0.9-1.4,1.5-3,1.8-4.7c2.1,0,4.2-0.1,6.3-0.3c1.1-0.1,2.5-0.4,2.8-1.6
		C44.5,24.9,45.5,26,46.7,27z"/>
	<path class="st3" d="M31.7,14.7c-0.5-0.2-1.1-0.1-1.6,0c-0.5,0.1-0.9,0.2-1.4,0.3c-0.2,0-0.4,0-0.5-0.1c-0.2-0.2-0.2-0.3-0.1-0.5
		c0.1-0.5,0.2-0.9,0.3-1.4c0.4-1.8,1.7-3.2,3.5-3.7c0.3-0.1,0.6-0.2,0.8-0.3c1.2-0.4,2.5-0.8,3.7-1.2c1-0.3,2.2-0.1,3.1,0.5
		c0,0,0,0,0,0c0.4,0.3,0.9,0.5,1.4,0.7c0.6,0.3,1.1,0.6,1.5,1.1c0.1,0.1,0.2,0.2,0.2,0.3c0,0.2,0,0.3-0.1,0.5
		c-0.4,0.9-1.2,1.7-2.2,2.1c-1.3,0.5-2.9,0.5-3.9,1.4c-0.3,0.3-0.6,0.6-0.9,0.9c-0.8,0.7-2.2,0.8-3.1,0.1
		C32.2,15.1,32,14.8,31.7,14.7z"/>
	<path class="st3" d="M13.9,33.8c-1-1.5-2-3-2.9-4.5c-0.1-0.2-0.3-0.5-0.3-0.7c0-0.2,0-0.4,0.1-0.7c0.7-2.3,1.6-4.5,2.8-6.6
		c0.1-0.1,0.1-0.2,0.2-0.3c0.1-0.1,0.3-0.2,0.5-0.2c0.8-0.2,1.6-0.4,2.4-0.6c1.1-0.3,2,0.7,1.6,1.8c-0.1,0.4-0.2,0.7-0.3,1.1
		c-0.4,2.3,0.4,4.9-0.8,6.9c-0.6,0.9-1.5,1.6-1.7,2.7c-0.1,0.4-0.1,0.9-0.3,1.2c-0.1,0.2-0.3,0.3-0.5,0.3
		C14.2,34.3,14.1,34,13.9,33.8z"/>
	<path class="st3" d="M17.6,39.1c0.2-0.8,0.9-1.2,1.6-1.7c1.1-0.7,2.5-0.3,3.1,0.8c0,0,0,0,0,0c1.3,2.5,1.6,5.3,1.6,8.2
		c0,1.3-1.3,2.3-2.6,2c-0.6-0.1-1.2-0.2-1.7-0.2c-0.2-2.2-0.8-4.4-1.6-6.5C17.7,40.8,17.4,39.9,17.6,39.1z"/>
	<path class="st3" d="M24.2,64.8c0.1,0.3,0.1,0.6,0.2,0.9c0.1,0.1,0.1,0.3,0.2,0.4c0.8,1.3-0.3,3-1.7,2.7c-0.1,0-0.1,0-0.2,0
		c-0.5-0.1-0.9-0.5-1.3-0.7c-1.1-0.7-2.3-1.5-3.4-2.2c-0.3-0.2-0.7-0.4-1-0.7c-0.8-0.7-1.3-1.7-1.8-2.7c-0.1-0.1-0.1-0.3-0.1-0.5
		c0-0.1,0.1-0.2,0.2-0.3c0.3-0.3,0.6-0.7,0.9-1.1c0.6-0.9,1.8-1.1,2.7-0.5c0.4,0.2,0.8,0.4,1.2,0.5c0.3,0.1,0.6,0.1,0.9,0.2
		c0.5,0.2,1,0.5,1.4,0.9C23.3,62.5,23.9,63.6,24.2,64.8z"/>
	<path class="st3" d="M36.8,59.9c0.7,0.2,1.6-0.1,2-0.7c0.5-0.6,0.5-1.5,0.1-2.1c-0.1-0.2-0.2-0.3-0.4-0.5c-1.6-1.7-4.4-2.2-6.4-1
		c-0.6,0.3-1.1,0.8-1.4,1.4c-0.3,0.6-0.3,1.4,0.1,1.9c0.2,0.3,0.5,0.5,0.9,0.6L36.8,59.9z"/>
	<path class="st3" d="M45.9,42.7c-1.2,1.4-2.1,3.1-2.1,4.9c0,2.2,1.3,4.3,3.2,5.5c1.8,1.2,4.1,1.7,6.3,1.6c2.5,0,5.2-0.8,6.5-3
		c1.3-2.3,0.5-5.1-0.7-7.5c-0.7-1.4-1.5-2.7-2.7-3.6c-1.6-1.2-3.7-1.5-5.6-1C48.9,40.1,47.2,41.3,45.9,42.7z"/>
	<path class="st3" d="M49.6,68.4c0,0.6,0.6,0.8,1.1,1c0.6,0.2,1.2,0.4,1.9,0.7c0.8,0.3,1.6,0.5,2.4,0.4c0.5-0.1,0.9-0.3,1.4-0.5
		c0.7-0.3,1.3-0.7,2-1c1.1-0.5,2.1-1.1,3.2-1.6c1.2-0.6,2.4-1.4,2.7-2.7c0.2-0.6,0-1.3-0.1-2c0-0.2-0.1-0.4-0.1-0.5
		c-0.3-1.4-1.7-2.4-3.1-2.1l-2.2,0.4c-0.2,0-0.5,0.1-0.7,0.2c-0.4,0.2-0.8,0.6-1.1,0.9c-1.2,1.3-2.4,2.6-3.6,3.9
		c-0.5,0.6-1,1.1-1.7,1.5c-0.5,0.3-1.2,0.4-1.6,0.9C49.7,67.9,49.6,68.1,49.6,68.4z"/>
	<g>
		<ellipse class="st4" cx="54.2" cy="46.9" rx="8" ry="6.7"/>
		<path class="st5" d="M54.2,52.5c-3.8,0-6.9-2.5-6.9-5.6s3.1-5.6,6.9-5.6c3.8,0,6.9,2.5,6.9,5.6S58,52.5,54.2,52.5z"/>
	</g>
	<g>
		<path class="st4" d="M65.5,19.7c1.5-0.5,3.2,0.5,3.9,1.9c0.8,1.4,0.8,3,0.9,4.6c0.1,1.5-0.1,3.3-1.5,3.9c-0.8,0.3-1.9,0-2.5-0.6
			c-0.7-0.6-1.1-1.5-1.5-2.3c-0.6-1.3-1.3-2.6-1.3-4C63.5,21.7,64.2,20.2,65.5,19.7z"/>
		<path class="st5" d="M68.1,29.1c-0.3,0-0.7-0.2-1.1-0.5c-0.5-0.5-0.9-1.2-1.2-2c-0.6-1.2-1.1-2.4-1.2-3.6c0-0.9,0.4-2,1.3-2.3
			c0.1-0.1,0.3-0.1,0.5-0.1c0.8,0,1.7,0.6,2.1,1.4c0.6,1.2,0.7,2.7,0.8,4.1c0,1.1-0.1,2.5-0.8,2.8C68.3,29,68.2,29.1,68.1,29.1z"/>
	</g>
	<g>
		<path class="st4" d="M45,25.1c0.1,1.1-0.6,2.1-1.6,2.7c-0.9,0.6-2.1,0.8-3.2,0.9c-1.2,0.2-2.4,0.4-3.5,0.1
			c-1.1-0.3-2.2-1.2-2.3-2.3c-0.1-1.1,0.6-2.2,1.6-2.7c1-0.6,2.1-0.7,3.2-0.9c1.2-0.2,2.3-0.4,3.5-0.1C43.8,23,44.9,23.9,45,25.1z"
			/>
		<path class="st5" d="M38.1,27.8c-0.4,0-0.7,0-1-0.1c-0.7-0.2-1.4-0.7-1.5-1.4c-0.1-0.7,0.5-1.3,1-1.6c0.8-0.5,1.8-0.6,2.8-0.8
			c0.6-0.1,1.3-0.2,2-0.2c0.4,0,0.7,0,1.1,0.1c0.7,0.2,1.4,0.7,1.5,1.4c0.1,0.7-0.5,1.3-1,1.6c-0.8,0.5-1.8,0.6-2.8,0.8
			C39.5,27.7,38.8,27.8,38.1,27.8z"/>
	</g>
	<g>
		<path class="st4" d="M33.5,12.6c-1.6,0.2-3.5,0.2-4.3-1.2c-0.8-1.4,0.2-3.1,1.5-4.1c1.3-0.9,2.8-1.4,4.4-1.4
			c1.7,0,3.6,0.9,3.9,2.6c0.2,1.3-0.7,2.5-1.8,3.1C36.1,12.3,34.8,12.4,33.5,12.6z"/>
		<path class="st5" d="M32.2,11.5c-1.7,0-2-0.5-2.1-0.7c-0.4-0.7,0.3-1.9,1.2-2.6c1.1-0.8,2.4-1.2,3.7-1.2l0.1,0
			c1.2,0,2.6,0.7,2.8,1.7c0.1,0.8-0.5,1.6-1.3,2c-0.9,0.5-2.1,0.7-3.3,0.8C33,11.5,32.6,11.5,32.2,11.5z"/>
	</g>
	<g>
		<path class="st4" d="M14.3,19.9c1.2,0.5,1.8,2,1.6,3.4c-0.1,1.3-0.8,2.5-1.5,3.7c-0.5,0.8-1,1.7-1.7,2.3c-0.7,0.6-1.8,1-2.7,0.7
			c-1-0.3-1.6-1.4-1.7-2.4c-0.1-1,0.2-2.1,0.5-3.1c0.4-1.3,0.8-2.6,1.7-3.5C11.6,19.9,13.1,19.3,14.3,19.9z"/>
		<path class="st5" d="M10.8,28.9c-0.1,0-0.2,0-0.3-0.1c-0.5-0.2-0.9-0.8-0.9-1.5c-0.1-0.8,0.2-1.7,0.5-2.6c0.4-1.2,0.8-2.3,1.5-3.1
			c0.5-0.5,1.2-0.8,1.8-0.8c0.2,0,0.4,0,0.6,0.1c0.8,0.3,1.1,1.4,1,2.2c-0.1,1.1-0.7,2.2-1.3,3.3c-0.4,0.7-0.9,1.5-1.4,2
			C11.7,28.7,11.2,28.9,10.8,28.9z"/>
	</g>
	<g>
		<path class="st4" d="M21.6,41.2c0.5,1.1,0.5,2.4,0.3,3.6c-0.2,1.5-1,3.2-2.5,3.4c-1.5,0.3-2.8-1.1-3.5-2.5c-0.6-1.2-1-2.6-0.7-3.9
			c0.2-1.3,1.1-2.6,2.4-2.9C19.2,38.5,21,39.7,21.6,41.2z"/>
		<path class="st5" d="M19.1,47.2c-0.8,0-1.7-1-2.1-1.9c-0.6-1.2-0.8-2.3-0.6-3.2c0.2-1,0.8-1.8,1.6-2c0.1,0,0.3-0.1,0.4-0.1
			c0.9,0,1.9,0.7,2.3,1.7c0.3,0.8,0.4,1.8,0.2,3c-0.2,1.1-0.7,2.4-1.6,2.5C19.2,47.2,19.1,47.2,19.1,47.2z"/>
	</g>
	<g>
		<path class="st4" d="M34.2,61.6c-1-0.1-2.2-0.4-2.9-1.2c-0.9-1.1-0.3-2.9,0.9-3.6c1.2-0.7,2.8-0.6,4-0.1c1.5,0.6,2.8,2.3,2.1,3.7
			C37.7,61.9,35.7,61.8,34.2,61.6z"/>
		<path class="st5" d="M35.6,60.6c-0.4,0-0.8,0-1.2-0.1c-0.9-0.1-1.7-0.3-2.1-0.8c-0.2-0.3-0.2-0.6-0.2-0.8c0.1-0.5,0.4-0.9,0.8-1.1
			c0.4-0.2,0.8-0.3,1.3-0.3c0.5,0,1.1,0.1,1.7,0.4c0.7,0.3,1.4,0.9,1.6,1.5c0.1,0.4,0.1,0.6,0,0.7C37.2,60.4,36.6,60.6,35.6,60.6z"
			/>
	</g>
	<g>
		<path class="st4" d="M54.9,65.5c1.4-1.3,2.9-2.6,4.6-3.3c1-0.4,2.1-0.6,3.1-0.2c1.5,0.7,1.9,2.7,1.3,4.2c-0.6,1.5-1.9,2.6-3.3,3.5
			c-1.4,0.9-2.9,1.7-4.5,1.6c-1.6-0.1-3.3-1.5-3.1-3.1C53.3,67.1,54.1,66.2,54.9,65.5z"/>
		<path class="st5" d="M56.5,70.2c-0.1,0-0.1,0-0.2,0c-0.6,0-1.3-0.4-1.7-0.9c-0.2-0.2-0.4-0.6-0.3-1c0.1-0.7,0.7-1.3,1.5-1.9
			c1.3-1.2,2.7-2.4,4.3-3.1c0.5-0.2,1.1-0.4,1.5-0.4c0.3,0,0.5,0,0.7,0.1c0.9,0.4,1.1,1.8,0.8,2.8c-0.5,1.3-1.7,2.2-2.8,3
			C59.1,69.4,57.8,70.2,56.5,70.2z"/>
	</g>
	<g>
		<path class="st4" d="M21,62.8c0.9,0.7,1.8,1.4,2.4,2.4c0.6,1,0.7,2.3,0.1,3.2c-0.7,1-2.1,1.3-3.3,1C19,69,18,68.2,17.1,67.4
			c-0.8-0.7-1.7-1.4-2.2-2.4c-0.5-1-0.6-2.2,0.1-3.1c0.7-0.9,2-1.1,3.1-0.8C19.2,61.4,20.1,62.1,21,62.8z"/>
		<path class="st5" d="M21.1,68.4c-0.2,0-0.5,0-0.7-0.1c-0.9-0.3-1.8-0.9-2.7-1.7c-0.8-0.7-1.5-1.3-1.9-2.1c-0.3-0.7-0.3-1.5,0-1.9
			c0.2-0.3,0.7-0.5,1.3-0.5c0.2,0,0.4,0,0.7,0.1c0.9,0.2,1.7,0.9,2.5,1.5c0.8,0.6,1.6,1.3,2.1,2c0.3,0.6,0.5,1.4,0.1,2
			C22.3,68.1,21.8,68.4,21.1,68.4z"/>
	</g>
</g>
</svg>
