<?xml version="1.0" encoding="utf-8"?>
<!-- Generator: Adobe Illustrator 22.1.0, SVG Export Plug-In . SVG Version: 6.00 Build 0)  -->
<svg version="1.1" id="Camada_1" xmlns="http://www.w3.org/2000/svg" xmlns:xlink="http://www.w3.org/1999/xlink" x="0px" y="0px"
	 viewBox="0 0 500 500" enable-background="new 0 0 500 500" xml:space="preserve">
<g>
	<rect x="225.91919" y="360.94254" fill="#F4C283" width="47.13196" height="12.13267"/>
	<path fill="#D0243E" d="M250.24425,10.87686c0,0,14.68184-5.70955,23.42876,0c8.74673,5.70955,17.31107,7.49389,29.08701,3.92538
		c11.77597-3.56851,16.41492-4.28225,24.97925,3.56851c8.56433,7.85059,32.11609,0,32.11609,0s-17.36655,20.45908-32.11609,14.51162
		c-14.74969-5.94746-15.46341-3.56851-24.50342-0.95165c-9.04013,2.61703-24.02759,0.95165-31.64044-2.8546
		c-7.61264-3.80642-21.47433,3.80626-21.47433,3.80626L250.24425,10.87686z"/>
	<path fill="#F7EEDD" d="M336.66028,28.03529c-8.74268-0.32726-11.77579-5.20411-19.98325-6.50941
		c-8.20746-1.30547-16.95013,2.91112-26.22818,2.91112c-9.27808,0-14.80908-4.10373-22.6597-5.53103
		c-7.85056-1.42747-17.54507,2.85478-17.54507,2.85478l-0.06125,0.11794l-0.06177,11.00368c0,0,13.86169-7.61268,21.47455-3.80626
		c7.61264,3.80626,22.6001,5.47147,31.64008,2.8546c9.04031-2.61686,9.75403-4.99581,24.50357,0.95165
		s32.11609-14.51162,32.11609-14.51162S345.40314,28.36238,336.66028,28.03529z"/>
	<path fill="#F4C283" d="M253.09479,50.07041h-5.94728V8.97373c0-1.64237,1.33136-2.97373,2.97356-2.97373l0,0
		c1.64236,0,2.97372,1.33136,2.97372,2.97373V50.07041z"/>
	<path fill="#CA983F" d="M255.89424,54.05518h-11.30016v-2.31939c0-3.12044,2.52972-5.65015,5.65016-5.65015l0,0
		c3.12045,0,5.64999,2.52972,5.64999,5.65015V54.05518z"/>
	<path fill="#F4C283" d="M273.673,79.39128h-47.10371V60.83507c0-5.12399,4.15382-9.2778,9.2778-9.2778h28.54811
		c5.12399,0,9.2778,4.15381,9.2778,9.2778V79.39128z"/>
	<path fill="#CA983F" d="M267.78915,79.39128h-35.33601V59.59307c0-4.43805,3.59775-8.0358,8.0358-8.0358h19.26442
		c4.43805,0,8.0358,3.59775,8.0358,8.0358V79.39128z"/>
	<path fill="#F4C283" d="M258.63007,79.39128h-17.01782V60.06627c0-4.69936,3.80946-8.50899,8.50882-8.50899l0,0
		c4.69952,0,8.509,3.80964,8.509,8.50899V79.39128z"/>
	<path fill="none" stroke="#D9D2C1" stroke-width="1.68709" stroke-linecap="round" stroke-miterlimit="10" d="M134.68298,182.87726
		c0,0,14.76662,102.414,57.40244,138.0986"/>
	<path fill="none" stroke="#D9D2C1" stroke-width="1.68709" stroke-linecap="round" stroke-miterlimit="10" d="M365.55914,182.87726
		c0,0-14.76663,102.414-57.40262,138.0986"/>
	<path fill="#D0243E" d="M368.76807,186.97591c0-66.48118-54.67862-120.19142-121.51768-118.61284
		c-64.43353,1.52172-116.32797,55.20827-115.77177,119.65738c0.29596,34.28725,15.1465,65.08739,38.66646,86.55817
		c14.98338,13.67792,25.80397,31.30389,31.26089,50.84381l0.48564,1.73865h48.22946h48.22946l0.48343-1.73105
		c5.53714-19.82657,16.80075-37.4505,31.90237-51.43942C354.12262,252.32793,368.76807,221.36942,368.76807,186.97591z"/>
	<path fill="#F7EEDD" d="M346.96698,186.97591c0-66.48118-44.63168-120.19142-99.18916-118.61284
		c-52.59395,1.52172-94.95294,55.20827-94.49895,119.65738c0.24146,34.28725,12.36346,65.08739,31.56158,86.55817
		c12.23012,13.67792,21.06265,31.30389,25.51682,50.84381l0.3963,1.73865h39.36749h39.36734l0.39474-1.73105
		c4.51965-19.82657,13.71347-37.4505,26.04037-51.43942C335.01266,252.32793,346.96698,221.36942,346.96698,186.97591z"/>
	<path fill="#D0243E" d="M314.71432,186.97591c0-66.48118-29.76791-120.19142-66.1561-118.61284
		c-35.07866,1.52172-63.33063,55.20827-63.02791,119.65738c0.16109,34.28725,8.24605,65.08739,21.05066,86.55817
		c8.15701,13.67792,14.04797,31.30389,17.01881,50.84381l0.2645,1.73865h26.25677h26.25696l0.26312-1.73105
		c3.0145-19.82657,9.14658-37.4505,17.36826-51.43942C306.74124,252.32793,314.71432,221.36942,314.71432,186.97591z"/>
	<path fill="#F7EEDD" d="M282.18301,186.97591c0-66.48118-14.77576-120.19142-32.83762-118.61284
		c-17.41191,1.52172-31.43518,55.20827-31.28493,119.65738c0.08005,34.28725,4.09309,65.08739,10.44884,86.55817
		c4.0489,13.67792,6.97289,31.30389,8.44757,50.84381l0.13133,1.73865h13.03285h13.03305l0.13062-1.73105
		c1.49634-19.82657,4.53998-37.4505,8.62103-51.43942C278.22531,252.32793,282.18301,221.36942,282.18301,186.97591z"/>
	<path opacity="0.2" d="M267.96344,309.31885h-0.00015c-27.33839,0-52.9735-13.73831-67.70815-36.76602
		c-4.13908-6.46899-8.53386-12.36789-12.7496-16.25891c-23.24092-21.45032-37.89079-52.06329-38.18471-86.11568
		c-0.24484-28.40071,9.70447-54.70369,26.41466-75.38156c-27.21233,22.0605-44.57956,55.81676-44.25688,93.22377
		c0.29393,34.05238,14.94379,64.66536,38.18471,86.11584c14.98405,13.82971,26.15561,31.28137,31.64061,50.92062l0.58768,2.10416
		h48.22946h48.22946l0.48343-1.7312c1.55185-5.55624,3.56851-10.93213,5.97827-16.11102H267.96344z"/>
	<g>
		<defs>
			<path id="SVGID_1_" d="M368.76807,186.97591c0-66.48118-54.67862-120.19142-121.51768-118.61284
				c-64.43353,1.52172-116.32797,55.20827-115.77177,119.65738c0.29596,34.28725,15.1465,65.08739,38.66646,86.55817
				c14.98338,13.67792,25.80397,31.30389,31.26089,50.84381l0.48564,1.73865h48.22946h48.22946l0.48343-1.73105
				c5.53714-19.82657,16.80075-37.4505,31.90237-51.43942C354.12262,252.32793,368.76807,221.36942,368.76807,186.97591z"/>
		</defs>
		<clipPath id="SVGID_2_">
			<use xlink:href="#SVGID_1_"  overflow="visible"/>
		</clipPath>
		<g clip-path="url(#SVGID_2_)">
			<g>
				<g>
					
						<line fill="none" stroke="#D9D2C1" stroke-width="1.68709" stroke-linecap="round" stroke-miterlimit="10" x1="240.65501" y1="36.21296" x2="72.23074" y2="204.63724"/>
					
						<line fill="none" stroke="#D9D2C1" stroke-width="1.68709" stroke-linecap="round" stroke-miterlimit="10" x1="303.10709" y1="36.21296" x2="156.61639" y2="182.70364"/>
				</g>
				<g>
					
						<line fill="none" stroke="#D9D2C1" stroke-width="1.68709" stroke-linecap="round" stroke-miterlimit="10" x1="134.68298" y1="36.21296" x2="281.34729" y2="182.87726"/>
					
						<line fill="none" stroke="#D9D2C1" stroke-width="1.68709" stroke-linecap="round" stroke-miterlimit="10" x1="72.40437" y1="36.21296" x2="218.89503" y2="182.87726"/>
					
						<line fill="none" stroke="#D9D2C1" stroke-width="1.68709" stroke-linecap="round" stroke-miterlimit="10" x1="9.95212" y1="36.21296" x2="156.61639" y2="182.70364"/>
				</g>
			</g>
			<g>
				<g>
					
						<line fill="none" stroke="#D9D2C1" stroke-width="1.68709" stroke-linecap="round" stroke-miterlimit="10" x1="365.55933" y1="36.21296" x2="218.89503" y2="182.87726"/>
					
						<line fill="none" stroke="#D9D2C1" stroke-width="1.68709" stroke-linecap="round" stroke-miterlimit="10" x1="427.83795" y1="36.21296" x2="281.34729" y2="182.87726"/>
					
						<line fill="none" stroke="#D9D2C1" stroke-width="1.68709" stroke-linecap="round" stroke-miterlimit="10" x1="490.29019" y1="36.21296" x2="343.62589" y2="182.87726"/>
				</g>
				<g>
					
						<line fill="none" stroke="#D9D2C1" stroke-width="1.68709" stroke-linecap="round" stroke-miterlimit="10" x1="259.58728" y1="36.21296" x2="428.01157" y2="204.63724"/>
					
						<line fill="none" stroke="#D9D2C1" stroke-width="1.68709" stroke-linecap="round" stroke-miterlimit="10" x1="197.13506" y1="36.21296" x2="343.62589" y2="182.87726"/>
				</g>
			</g>
		</g>
		
			<path clip-path="url(#SVGID_2_)" fill="none" stroke="#D9D2C1" stroke-width="1.68709" stroke-linecap="round" stroke-miterlimit="10" d="
			M157.00745,183.70909c0,0,9.8781,16.29715,31.7907,15.58359c21.91261-0.71375,30.66156-15.58359,30.66156-15.58359"/>
		
			<path clip-path="url(#SVGID_2_)" fill="none" stroke="#D9D2C1" stroke-width="1.68709" stroke-linecap="round" stroke-miterlimit="10" d="
			M94.59701,183.70909c0,0,9.87826,16.29715,31.79086,15.58359c21.91244-0.71375,30.66138-15.58359,30.66138-15.58359"/>
		
			<path clip-path="url(#SVGID_2_)" fill="none" stroke="#D9D2C1" stroke-width="1.68709" stroke-linecap="round" stroke-miterlimit="10" d="
			M281.88992,183.70909c0,0,9.87808,16.29715,31.79071,15.58359c21.91263-0.71375,30.66153-15.58359,30.66153-15.58359"/>
		
			<path clip-path="url(#SVGID_2_)" fill="none" stroke="#D9D2C1" stroke-width="1.68709" stroke-linecap="round" stroke-miterlimit="10" d="
			M344.34152,183.70909c0,0,9.87823,16.29715,31.79083,15.58359c21.91245-0.71375,30.66138-15.58359,30.66138-15.58359"/>
		
			<path clip-path="url(#SVGID_2_)" fill="none" stroke="#D9D2C1" stroke-width="1.68709" stroke-linecap="round" stroke-miterlimit="10" d="
			M219.47949,183.70909c0,0,9.87825,16.29715,31.7907,15.58359c21.91261-0.71375,30.66154-15.58359,30.66154-15.58359"/>
	</g>
	<path fill="#989464" d="M250.12106,327.16107H201.8916l2.50873,16.19342c1.56825,10.12125,10.28098,17.58804,20.52287,17.58804
		h25.19786h25.19769c10.24207,0,18.95477-7.4668,20.52286-17.58804l2.50891-16.19342H250.12106z"/>
	<g>
		
			<line fill="none" stroke="#D9D2C1" stroke-width="1.68709" stroke-linecap="round" stroke-miterlimit="10" x1="192.08542" y1="327.16293" x2="192.08542" y2="442.06546"/>
		
			<line fill="none" stroke="#D9D2C1" stroke-width="1.68709" stroke-linecap="round" stroke-miterlimit="10" x1="215.29977" y1="327.16293" x2="215.29977" y2="442.06546"/>
		
			<line fill="none" stroke="#D9D2C1" stroke-width="1.68709" stroke-linecap="round" stroke-miterlimit="10" x1="238.51396" y1="327.16293" x2="238.51396" y2="444.56506"/>
		
			<line fill="none" stroke="#D9D2C1" stroke-width="1.68709" stroke-linecap="round" stroke-miterlimit="10" x1="261.72815" y1="327.16293" x2="261.72815" y2="444.56506"/>
		
			<line fill="none" stroke="#D9D2C1" stroke-width="1.68709" stroke-linecap="round" stroke-miterlimit="10" x1="284.94235" y1="327.16293" x2="284.94235" y2="442.06546"/>
		
			<line fill="none" stroke="#D9D2C1" stroke-width="1.68709" stroke-linecap="round" stroke-miterlimit="10" x1="308.15652" y1="327.16293" x2="308.15652" y2="442.06546"/>
	</g>
	<g>
		<path fill="#9F6F47" d="M192.83232,442.06546v-0.00018l14.0891,42.14648c2.42024,7.24023,7.56801,11.85635,13.22191,11.85635
			h29.97774l0,0h29.9776c5.65387,0,10.80164-4.61612,13.22205-11.85635l14.08893-42.14648v0.00018
			C269.67554,453.92197,230.56642,453.92197,192.83232,442.06546z"/>
		<path fill="none" stroke="#D9D2C1" stroke-width="1.68709" stroke-linecap="round" stroke-miterlimit="10" d="
			M191.63837,444.56506c0,0-0.64267,20.68854,8.20982,23.75854c12.09459,4.19424,28.68785-19.59711,28.68785-19.59711
			s3.4411,23.55191,21.58502,23.78983c18.14392,0.23776,25.04285-27.33533,25.04285-27.33533s9.78589,23.56192,23.64655,22.60822
			c13.86081-0.95349,9.34607-23.22415,9.34607-23.22415"/>
		<g>
			<path fill="#815D39" d="M250.12106,453.81403c-19.67647,0-39.35278-2.12143-58.4827-6.36423
				c-2.97441-0.65909-4.85097-3.60507-4.19087-6.57864c0.65909-2.9744,3.61116-4.84909,6.5788-4.19086
				c36.69852,8.13687,75.49104,8.13687,112.18956,0c2.97641-0.66113,5.91956,1.21646,6.57861,4.19086
				c0.6601,2.97357-1.21646,5.91956-4.19089,6.57864C289.47366,451.6926,269.79736,453.81403,250.12106,453.81403z"/>
		</g>
	</g>
	<path fill="none" stroke="#D9D2C1" stroke-width="1.68709" stroke-linecap="round" stroke-miterlimit="10" d="M215.29977,324.30731
		c0,0-49.58942-59.03281-58.85698-142.16106"/>
	<path fill="none" stroke="#D9D2C1" stroke-width="1.68709" stroke-linecap="round" stroke-miterlimit="10" d="M218.89503,182.14626
		c0,0-1.36555,81.73427,17.69788,138.82961"/>
	<path fill="none" stroke="#D9D2C1" stroke-width="1.68709" stroke-linecap="round" stroke-miterlimit="10" d="M286.06931,324.30731
		c0,0,49.00479-59.03281,58.27222-142.16106"/>
	<path fill="none" stroke="#D9D2C1" stroke-width="1.68709" stroke-linecap="round" stroke-miterlimit="10" d="M281.88943,182.14626
		c0,0,1.36554,81.73427-17.69791,138.82961"/>
	<rect x="187.31534" y="315.97989" fill="#F4C283" width="125.61144" height="16.65469"/>
	<rect x="187.31534" y="320.97586" fill="#CA983F" width="125.61144" height="6.66272"/>
	<g>
		<path fill="#815D39" d="M160.62267,182.14626c0,2.3084-1.87132,4.1797-4.17987,4.1797c-2.3084,0-4.1797-1.87131-4.1797-4.1797
			c0-2.30856,1.87131-4.17987,4.1797-4.17987C158.75134,177.96638,160.62267,179.83769,160.62267,182.14626z"/>
		<path fill="#815D39" d="M223.07491,182.14626c0,2.3084-1.87132,4.1797-4.17987,4.1797c-2.3084,0-4.17989-1.87131-4.17989-4.1797
			c0-2.30856,1.87149-4.17987,4.17989-4.17987C221.20358,177.96638,223.07491,179.83769,223.07491,182.14626z"/>
		<path fill="#815D39" d="M286.06931,182.14626c0,2.3084-1.87149,4.1797-4.17987,4.1797c-2.30856,0-4.1799-1.87131-4.1799-4.1797
			c0-2.30856,1.87134-4.17987,4.1799-4.17987C284.19781,177.96638,286.06931,179.83769,286.06931,182.14626z"/>
		<path fill="#815D39" d="M348.52136,182.14626c0,2.3084-1.87131,4.1797-4.17984,4.1797c-2.30841,0-4.17975-1.87131-4.17975-4.1797
			c0-2.30856,1.87134-4.17987,4.17975-4.17987C346.65005,177.96638,348.52136,179.83769,348.52136,182.14626z"/>
	</g>
	<g>
		<path fill="#815D39" d="M160.62267,121.24502c0,2.30839-1.87132,4.17987-4.17987,4.17987c-2.3084,0-4.1797-1.87148-4.1797-4.17987
			c0-2.30856,1.87131-4.17988,4.1797-4.17988C158.75134,117.06514,160.62267,118.93645,160.62267,121.24502z"/>
		<circle fill="#815D39" cx="218.89503" cy="121.24502" r="4.17987"/>
		<circle fill="#815D39" cx="281.88943" cy="121.24502" r="4.17987"/>
		<path fill="#815D39" d="M348.52136,121.24502c0,2.30839-1.87131,4.17987-4.17984,4.17987
			c-2.30841,0-4.17975-1.87148-4.17975-4.17987c0-2.30856,1.87134-4.17988,4.17975-4.17988
			C346.65005,117.06514,348.52136,118.93645,348.52136,121.24502z"/>
	</g>
	<g>
		<path fill="#815D39" d="M192.41336,151.57693c0,2.3084-1.87132,4.1797-4.1797,4.1797c-2.30856,0-4.17987-1.87131-4.17987-4.1797
			c0-2.30856,1.87131-4.17987,4.17987-4.17987C190.54204,147.39706,192.41336,149.26837,192.41336,151.57693z"/>
		<path fill="#815D39" d="M254.86562,151.57693c0,2.3084-1.87134,4.1797-4.1799,4.1797c-2.30838,0-4.17987-1.87131-4.17987-4.1797
			c0-2.30856,1.87149-4.17987,4.17987-4.17987C252.99428,147.39706,254.86562,149.26837,254.86562,151.57693z"/>
		<path fill="#815D39" d="M317.85999,151.57693c0,2.3084-1.87149,4.1797-4.17987,4.1797s-4.17987-1.87131-4.17987-4.1797
			c0-2.30856,1.87149-4.17987,4.17987-4.17987S317.85999,149.26837,317.85999,151.57693z"/>
	</g>
	<g>
		<path fill="#815D39" d="M192.41336,90.61681c0,2.30856-1.87132,4.17987-4.1797,4.17987
			c-2.30856,0-4.17987-1.87132-4.17987-4.17987c0-2.30839,1.87131-4.1797,4.17987-4.1797
			C190.54204,86.4371,192.41336,88.30842,192.41336,90.61681z"/>
		<path fill="#815D39" d="M254.86562,90.61681c0,2.30856-1.87134,4.17987-4.1799,4.17987
			c-2.30838,0-4.17987-1.87132-4.17987-4.17987c0-2.30839,1.87149-4.1797,4.17987-4.1797
			C252.99428,86.4371,254.86562,88.30842,254.86562,90.61681z"/>
		<path fill="#815D39" d="M317.85999,90.61681c0,2.30856-1.87149,4.17987-4.17987,4.17987s-4.17987-1.87132-4.17987-4.17987
			c0-2.30839,1.87149-4.1797,4.17987-4.1797S317.85999,88.30842,317.85999,90.61681z"/>
	</g>
</g>
</svg>
