<?xml version="1.0" encoding="utf-8"?>
<!-- Generator: Adobe Illustrator 22.1.0, SVG Export Plug-In . SVG Version: 6.00 Build 0)  -->
<svg version="1.1" id="Camada_1" xmlns="http://www.w3.org/2000/svg" xmlns:xlink="http://www.w3.org/1999/xlink" x="0px" y="0px"
	 viewBox="0 0 1280 1024" enable-background="new 0 0 1280 1024" xml:space="preserve">
<path fill="#F3FAFA" d="M486.08893,482.36554c3.09265,0,5.54965,0.59286,8.00641,0.8483
	c9.90051-39.6843,45.26367-69.37048,88.22302-69.37048c13.33319,0,26.36603,3.04987,37.65009,8.69943
	c15.46503-19.91351,39.07635-32.93384,66.13538-32.93384c36.61932,0,67.58911,23.75403,79.07068,56.34991
	c3.9281-0.59286,7.59851-1.04584,11.84943-1.04584c46.43457,0,84.04205,37.59268,84.04205,83.71692
	c0,46.74481-37.60748,84.34003-84.04205,84.34003c-9.71527,0-18.685-1.92151-27.31189-4.85889
	C737.59509,624.4364,718.06433,635,696.07428,635c-22.82068,0-42.95935-11.49664-55.13397-28.97827
	C628.71039,623.50336,608.68439,635,585.77869,635c-24.75732,0-46.05176-13.21814-57.54846-32.79114
	c-11.70697,9.40503-26.07086,14.93933-42.1413,14.93933c-37.28214,0-67.36362-30.07898-67.36362-67.33368
	C418.72531,512.58722,448.80679,482.36554,486.08893,482.36554z"/>
</svg>
