<?xml version="1.0" encoding="utf-8"?>
<!-- Generator: Adobe Illustrator 22.1.0, SVG Export Plug-In . SVG Version: 6.00 Build 0)  -->
<svg version="1.1" id="Camada_1" xmlns="http://www.w3.org/2000/svg" xmlns:xlink="http://www.w3.org/1999/xlink" x="0px" y="0px"
	 viewBox="0 0 1280 1024" enable-background="new 0 0 1280 1024" xml:space="preserve">
<g>
	<g>
		<circle fill="#60ACBB" cx="652.53833" cy="685.5213" r="695.47791"/>
		<path fill="#1E8359" d="M789.7002,979.27264c-17.88495-0.56433-36.37726-1.02435-52.96826,5.67914
			c-32.58136,13.16669-48.7644,49.93372-55.46332,84.42786c-3.68488,18.96814-4.07239,41.93628,11.16113,53.81799
			c9.37982,7.31763,22.06635,8.14929,33.86859,9.63367c23.99695,3.01868,47.68341,10.03259,68.49634,22.354
			c14.53772,8.60706,27.58435,19.72742,42.78381,27.11072c15.19727,7.38562,33.81195,10.60364,48.7486,2.70361
			c11.17017-5.90576,19.37158-17.4884,31.69977-20.26453c10.10736-2.27527,20.56818,2.0033,30.90918,1.37109
			c60.58246-3.69165,38.27161-115.28235,13.79419-147.03882C924.90033,969.98792,843.88312,980.97681,789.7002,979.27264z
			 M1035.16553,104.83096c-60.59656,8.74759-114.47809,48.20918-163.54395,105.93422
			c-10.5719,12.43698-20.71997,26.38553-22.65985,42.59123c-1.93738,16.21024,7.34705,34.8136,23.3941,37.79367
			c-36.2005,33.27936-28.50671,91.3262-17.92572,139.34729c1.54578,7.01846,3.27014,14.39273,8.13342,19.68433
			c10.03705,10.92545,27.80194,8.0564,41.67798,13.30722c27.0246,10.22516,31.08337,49.93381,14.83234,73.82651
			s-44.73956,35.72913-71.50134,46.62506c-38.04065,15.48962-77.92603,33.26581-101.04822,67.21368
			c-23.11993,33.94562-20.04468,88.88324,16.47992,107.67242c16.45721,8.46655,35.87866,8.08582,54.37805,7.50793
			c58.36383-1.82202,116.72797-3.64404,175.09204-5.46613c18.07306-0.56427,37.96368-0.53027,51.7807,11.13623
			c8.23547,6.9527,13.00354,17.06458,17.52698,26.84784c22.64404,48.98193,45.28796,97.96619,67.93433,146.94818
			c7.88635,17.06006,18.14331,36.11438,36.48376,40.20941c26.98157,6.02136,48.45618-26.26544,47.20972-53.88153
			c-1.24866-27.61609-15.67761-52.98407-19.78857-80.32141c-6.18872-41.13184,13.60645-85.03748,48.52881-107.63165
			c30.97009-20.03784,72.85425-25.63086,105.4198-40.98224c0.14722-5.89215,0.44666-11.74579,0.44666-17.67194
			C1348.01648,442.80972,1223.60779,229.25296,1035.16553,104.83096z M192.22627,710.16187
			c38.23331-3.50812,60.82747,27.52771,84.38478,52.35187c19.17444,20.20557,42.28757,38.17212,69.51184,44.06879
			c27.22379,5.89899,59.00519-2.95288,73.77637-26.56909c18.87531-30.17694,13.02396-82.05737,47.70383-90.07977
			c13.09192-3.02765,26.86145,2.85089,40.12106,0.67303c20.81747-3.41742,33.04391-24.4411,44.24106-42.31927
			c30.96558-49.43976,75.57373-90.23615,127.57654-116.67383c21.71033-11.0387,46.258-20.9942,55.724-44.69199
			c6.02582-15.08395,1.64069-33.44028-12.93329-40.61737c-13.10553-6.45193-24.08765,1.05151-35.46149,5.40717
			c-28.84241,11.04102-64.55792-0.06345-82.0531-25.51077c-16.71558-24.31421-23.52783-63.21381-52.88666-66.14627
			c-9.6994-0.96768-19.17218,2.88715-28.84894,4.07239c-71.24524,8.71585-109.05704-119.15758-178.37375-100.52475
			c-12.53897,3.36984-23.61169,11.62112-36.48605,13.28c-12.87665,1.65887-28.77164-8.56854-25.20258-21.05086
			c-42.87904-11.01834-79.84102,35.14445-88.72911,78.51302c-2.54723,12.42337-6.17317,27.73621-18.4855,30.7684
			c-8.96742,2.20953-17.72408-3.69168-25.08247-9.27563c-19.81351-15.03406-45.76167-40.09387-73.72903-60.79349
			C1.32033,406.3667-42.93884,540.76685-42.93884,685.5213c0,117.30835,29.16415,227.75916,80.4529,324.70105
			c7.26322,7.02521,13.43866,15.05219,17.7175,24.84454c2.14134,4.90173,3.67784,10.03247,5.14634,15.19043
			c11.00927,17.83728,22.73466,35.1875,35.26456,51.90991c11.48292,6.05981,24.75387,8.73621,37.61917,6.86438
			c18.29515-2.66516,36.83279-17.42041,35.27589-35.84021c-0.63226-7.4967-4.4463-14.34973-5.95334-21.72168
			c-2.39085-11.67554,2.51096-23.57324,10.93222-31.87885c12.50497-12.33276,23.73883-25.63092,34.53937-39.47974
			c4.47125-5.729,10.77586-10.27954,17.67421-12.22852c17.25043-4.86554,35.47784,1.26001,52.34503,7.31763
			c56.814,20.40271,120.90256,48.15479,138.1734,105.99762c5.48648,18.37451,6.07117,39.4707,19.07269,53.56653
			c14.31998,15.52588,39.47949,17.44531,53.16541,33.53552c8.32809,9.79224,10.99768,23.32385,18.76855,33.56482
			c14.34515,18.9093,46.31006,20.45715,62.41608,3.02319c16.10596-17.43396,12.03131-49.17688-7.95215-61.98096
			c-13.02393-8.34424-29.63531-8.68188-43.68103-15.16101c-61.17899-28.21436-28.89426-135.81427-82.70804-176.34778
			c-17.58582-13.24603-40.63095-15.90881-61.7702-22.05707c-48.57181-14.13214-88.76538-47.62-127.41341-80.26025
			c-8.36687-7.0661-16.97395-14.43805-21.70581-24.31653c-5.60661-11.70728-5.37093-26.16571-13.57689-36.2254
			c-13.18257-16.15814-42.00203-13.42053-49.26524-36.50647C155.05128,731.22406,170.50233,712.15613,192.22627,710.16187z"/>
		<path fill="#FFFFFF" d="M243.32262,225.06499c-8.20596,0-16.33942-3.49677-22.02081-10.27275
			c-10.1889-12.14917-8.59802-30.26303,3.55116-40.45193c119.7468-100.3344,271.62851-155.59151,427.6778-155.59151
			c15.84991,0,28.71069,12.85171,28.71069,28.71294s-12.86078,28.71294-28.71069,28.71294
			c-142.59024,0-281.36871,50.49807-390.77704,142.18912C256.3692,222.86676,249.82664,225.06499,243.32262,225.06499z"/>
		<path fill="#FFFFFF" d="M173.03596,293.69504c-6.71027,0-13.45906-2.34552-18.91609-7.12045
			c-11.92709-10.46085-13.10553-28.6019-2.65601-40.5267c4.67293-5.31882,9.42291-10.55377,14.24565-15.72073
			c10.85947-11.60075,29.00958-12.18771,40.58087-1.38466c11.58943,10.82344,12.22624,28.99394,1.4028,40.58336
			c-4.41232,4.72055-8.78612,9.52264-13.04887,14.39273C188.96292,290.38638,181.01756,293.69504,173.03596,293.69504z"/>
	</g>
</g>
</svg>
