<?xml version="1.0" encoding="utf-8"?>
<!--Designed by Vexels.com - 2017 All Rights Reserved - https://vexels.com/terms-and-conditions/-->
<svg version="1.1" id="Layer_1" xmlns="http://www.w3.org/2000/svg" xmlns:xlink="http://www.w3.org/1999/xlink" x="0px" y="0px"
	 viewBox="0 0 1200 1200" enable-background="new 0 0 1200 1200" xml:space="preserve">
<g>
	<g>
		<path fill="#F67C01" d="M930.949,868.272c-1.838-44.06-24.064-162.543-30.767-194.875c-1.335-6.442-10.422-6.903-13.139-0.604
			c-0.02,0.045-0.039,0.09-0.058,0.136c-1.751,4.13-9.34,29.732-11.502,33.676c-2.929,5.343-5.059,11.513-12.083,14.248
			c-1.263-1.463-2.619-2.525-3.337-3.941c-9.79-19.304-19.611-38.592-29.185-58.014c-14.527-29.47-23.918-60.987-31.555-93.252
			c-7.254-30.645-12.388-61.408-8.156-93.957c2.479-19.068,7.065-37.246,17.041-54.315c4.103-7.02,8.085-14.104,11.992-20.984
			c1.354-2.384,0.974-5.315-1.017-6.935c-2.978-2.424-6.944-1.759-10.852-1.364c-17.983,1.816-29.953,14.173-40.811,26.797
			c-11.198,13.018-20.425,27.674-30.644,41.523c-4.721,6.397-9.751,12.578-15.896,20.469c-3.454-7.207-6.041-12.424-8.471-17.721
			c-3.007-6.554-5.361-13.499-8.925-19.701c-8.223-14.306-17.038-28.246-25.555-42.371c-15.816-26.231-28.916-53.748-33.423-85.307
			c-0.742-5.197-1.867-10.303-3.152-15.356c-5.912-23.247-4.684-46.981-0.922-71.019c0.974-6.219,2.033-12.662-0.187-18.629
			c-0.888-2.388-3.689-3.412-6.156-2.35c-7.394,3.184-11.545,9.383-15.495,15.645c-6.279,9.955-12.461,19.969-18.337,30.147
			c-4.835,8.376-10.433,16.588-13.882,25.459c-20.022,51.501-27.533,104.731-32.26,158.298c-0.386,4.374,1.154,9.115-3.862,15.449
			c-11.846-35.193-38.957-54.882-64.996-76.665c-2.736-2.288-7.047-1.321-9.018,1.946c-4.106,6.808-2.853,13.913-2,20.986
			c1.656,13.732,3.501,27.438,4.745,41.238c2.715,30.127-2.715,60.261-7.308,90.351c-0.923,6.041-2.426,12.326-5.125,17.874
			c-6.092,12.524-13.059,24.679-19.821,36.908c-0.49,0.886-2.202,1.164-4.519,2.3c-5.132-14.882-22.92-32.773-34.046-42.32
			c-2.961-2.541-7.717,0.496-6.859,4.376c2.233,10.093,4.334,19.334,5.647,28.741c1.307,9.366,1.076,19.111,0.873,28.721
			c-0.203,9.589-0.551,19.274-2.005,28.825c-5.695,37.417-18.972,73.055-34.084,108.174c-10.816,25.138-23.995,49.424-31.673,75.689
			c-1.317,4.506-3.588,8.799-5.903,14.355c-4.818-2.036-8.633-2.937-11.574-5.014c-12.065-8.521-23.881-17.379-35.752-26.16
			c-3.605-2.667-6.221-7.263-12.075-5.278c-5.642,8.881-6.968,17.877-5.485,31.563c3.286,30.325,10.544,59.496,19.83,88.027
			c8.364,25.7,18.546,50.709,33.891,72.651c6.918,9.892,14.339,19.347,22.147,28.456c0.028,0.039,0.048,0.079,0.077,0.118
			C377.47,1059.682,470.834,1150,619.797,1150c106.74,0,183.618-45.59,218.629-71.437c0.313-0.228,0.631-0.442,0.943-0.671
			c4.882-3.594,9.593-7.342,14.127-11.244c4.001-3.415,6.074-5.438,6.082-5.445c15.507-14.411,28.561-30.948,38.143-50.343
			c12.238-24.772,20.03-50.781,26.841-77.131C930.2,911.912,931.858,890.044,930.949,868.272z"/>
		<path fill="#F67C01" d="M717.471,374.35c4.061,5.479,6.26,11.132,5.941,17.526c-0.111,2.218,1.11,4.401,1.668,6.405
			c6.92-0.142,7.872-2.965,8.525-5.826c2.601-11.389,9.786-21.562,18.952-31.228c1.008-1.063,1.799-2.222,2.713-3.328
			c5.773-6.989,9.105-14.313,11.025-22.233c3.963-16.349,2.173-32.038-1.067-47.963c-4.309-21.177-15.697-41.219-14.037-63.34
			c0.016-0.219-0.499-0.431-1.656-1.363c-8.004,2.187-10.442,7.026-12.699,11.799c-6.819,14.416-13.002,28.962-20.25,43.288
			c-14.228,28.121-15.013,55.915-5.676,83.537C712.398,366.026,714.546,370.403,717.471,374.35z"/>
		<path fill="#F67C01" d="M328.109,762.919c0.523,1.093,1.574,3.457,2.505,3.457c0.022,0,0.045,0,0.067,0
			c4.205,0,7.409-5.129,6.319-9.102c-1.905-6.942-3.632-13.825-5.696-20.167c-3.181-9.776-3.603-19.576,1.713-29.439
			c5.135-9.525,9.983-19.293,15.117-28.819c5.463-10.137,7.694-20.845,8.865-31.944c3.363-31.85-8.72-58.533-21.231-85.438
			c-0.916-1.97-3.358-2.708-5.377-1.589c-4.475,2.483-5.246,6.6-4.145,12.1c2.043,10.201,0.07,21.087-4.834,30.796
			c-5.791,11.466-11.752,22.889-18.308,33.972c-17.537,29.647-21.557,59.425-2.656,86.9
			C309.443,736.721,321.103,748.287,328.109,762.919z"/>
		<path fill="#F67C01" d="M852.558,619.207c1.872,5.621,4.567,10.917,6.905,16.353c1.606,3.735,1.832,8.654,9.162,9.157
			c1.547-2.819,3.63-6.047,5.15-9.489c5.062-11.465,9.94-22.999,14.847-34.521c1.925-4.521,4.896-9.039,5.403-13.633
			c2.032-18.4,3.316-36.84-2.735-54.291c-5.689-16.408-11.44-32.791-17.204-49.168c-0.109-0.309-0.713-0.413-1.086-0.613
			c-9.182,4.044-16.879,30.744-18.768,40.712c-2.221,11.725-4.266,23.522-5.396,35.311c-1.253,13.08-2.132,26.263-1.713,39.248
			C847.354,605.426,850.284,612.383,852.558,619.207z"/>
		<path fill="#F67C01" d="M669.99,152.97c0.009,0.046,0.018,0.092,0.027,0.138c1.229,6.248,9.92,6.586,12.732,0.565
			c16.104-34.484,9.682-67.361-1.914-100.655c-1.151-3.304-5.505-4.095-8.042-1.376c-2.011,2.155-2.828,4.763-3.125,7.95
			c-0.639,6.87-1.654,13.722-3.359,20.486c-4.408,17.493-6.86,34.71-1.245,51.745C667.31,138.639,668.615,145.847,669.99,152.97z"/>
	</g>
	<path fill="#FFC929" d="M882.208,964.631c1.099-10.142,0.116-16.808-4.065-23.389c-4.338-1.471-6.276,1.935-8.948,3.911
		c-8.797,6.507-17.552,13.071-26.493,19.385c-2.179,1.539-5.006,2.207-8.576,3.715c-1.716-4.117-3.398-7.298-4.374-10.637
		c-5.69-19.463-15.456-37.459-23.471-56.087c-11.198-26.024-21.037-52.433-25.257-80.159c-1.077-7.077-1.335-14.254-1.485-21.36
		c-0.15-7.122-0.322-14.343,0.647-21.283c0.973-6.97,2.53-13.818,4.185-21.297c0.636-2.875-2.889-5.125-5.083-3.243
		c-8.244,7.074-21.426,20.332-25.229,31.36c-1.717-0.841-2.985-1.048-3.349-1.704c-5.011-9.063-10.173-18.069-14.687-27.35
		c-2-4.112-3.114-8.769-3.798-13.245c-3.404-22.297-7.428-44.627-5.416-66.952c0.921-10.227,2.288-20.383,3.516-30.559
		c0.632-5.241,1.561-10.506-1.482-15.551c-1.46-2.421-4.655-3.138-6.682-1.442c-19.295,16.142-39.385,30.732-48.163,56.811
		c-3.717-4.694-2.576-8.207-2.862-11.448c-3.503-39.694-9.068-79.139-23.905-117.302c-2.556-6.574-6.704-12.659-10.287-18.866
		c-4.354-7.542-8.935-14.963-13.588-22.34c-2.927-4.64-6.003-9.234-11.482-11.593c-1.828-0.787-3.903-0.028-4.562,1.741
		c-1.645,4.422-0.86,9.196-0.138,13.804c2.788,17.813,3.698,35.4-0.683,52.626c-0.952,3.744-1.786,7.528-2.336,11.379
		c-3.34,23.386-13.047,43.777-24.767,63.215c-6.311,10.467-12.843,20.796-18.937,31.398c-2.641,4.595-4.385,9.742-6.613,14.599
		c-1.801,3.925-3.718,7.791-6.277,13.131c-4.554-5.847-8.281-10.427-11.779-15.168c-7.573-10.262-14.41-21.123-22.708-30.77
		c-8.046-9.355-16.916-18.511-30.242-19.857c-2.896-0.293-5.835-0.785-8.041,1.011c-1.475,1.2-1.757,3.372-0.754,5.139
		c2.896,5.099,5.847,10.348,8.887,15.55c7.392,12.649,10.79,26.119,12.628,40.248c3.136,24.12-0.668,46.916-6.044,69.624
		c-5.659,23.909-12.618,47.263-23.383,69.102c-7.095,14.392-14.373,28.685-21.627,42.99c-0.532,1.05-1.537,1.837-2.473,2.921
		c-5.206-2.027-6.784-6.599-8.954-10.558c-1.602-2.922-7.226-21.894-8.524-24.954c-0.014-0.033-0.028-0.067-0.043-0.101
		c-2.013-4.667-8.746-4.326-9.736,0.448c-4.967,23.959-21.437,111.757-22.799,144.407c-0.673,16.133,0.555,32.338,4.734,48.504
		c2.828,10.942,5.91,21.797,9.646,32.463C454.652,1114.389,526.26,1150,619.797,1150c106.74,0,183.618-45.59,218.629-71.437
		c0.313-0.228,0.631-0.442,0.943-0.671c4.321-3.181,8.484-6.503,12.533-9.925c6.377-12.078,11.333-24.96,15.611-38.105
		C874.395,1008.719,879.774,987.103,882.208,964.631z"/>
	<path fill="#FFC929" d="M535.813,526.511c-1.673-3.536-3.479-7.123-9.41-8.743c-0.857,0.691-1.239,0.848-1.227,1.01
		c1.23,16.393-7.208,31.244-10.402,46.937c-2.401,11.8-3.727,23.426-0.791,35.541c1.423,5.869,3.892,11.296,8.17,16.475
		c0.677,0.819,1.264,1.678,2.01,2.466c6.792,7.164,12.116,14.701,14.044,23.141c0.484,2.12,1.189,4.212,6.317,4.317
		c0.414-1.485,1.318-3.102,1.236-4.746c-0.237-4.738,1.393-8.928,4.402-12.988c2.168-2.925,3.76-6.168,4.863-9.432
		c6.919-20.468,6.337-41.064-4.206-61.903C545.448,547.973,540.866,537.194,535.813,526.511z"/>
	<path fill="#FFC929" d="M843.65,799.189c-3.634-7.194-5.095-15.263-3.582-22.822c0.816-4.076,0.245-7.13-3.072-8.969
		c-1.496-0.83-3.305-0.289-3.984,1.17c-9.271,19.937-18.224,39.697-15.732,63.299c0.868,8.224,2.521,16.133,6.569,23.645
		c3.804,7.059,7.397,14.245,11.202,21.303c3.94,7.309,3.626,14.467,1.269,21.711c-1.529,4.7-2.809,8.657-4.221,13.801
		c-0.808,2.944,1.566,5.393,4.682,5.393c0,0,0.033,0,0.05,0c0.69,0,1.469-0.4,1.857-1.211c5.192-10.843,13.832-18.738,20.496-28.426
		c14.006-20.36,11.027-41.984-1.968-63.954C852.359,815.918,847.942,807.686,843.65,799.189z"/>
	<path fill="#FFC929" d="M448.819,740.605c-1.4-7.386-7.103-27.172-13.907-30.168c-0.277,0.148-0.724,0.225-0.805,0.454
		c-4.271,12.136-8.533,24.276-12.748,36.435c-4.484,12.932-3.533,26.596-2.027,40.231c0.376,3.404,2.577,6.752,4.004,10.102
		c3.636,8.538,7.251,17.085,11.002,25.581c1.126,2.55,2.67,4.943,3.816,7.031c5.432-0.372,5.6-4.018,6.789-6.785
		c1.733-4.028,3.729-7.953,5.117-12.118c1.685-5.057,3.857-10.212,4.027-15.512c0.311-9.622-0.341-19.391-1.269-29.084
		C451.98,758.036,450.465,749.294,448.819,740.605z"/>
	<path fill="#FFC929" d="M694.897,540.285c-0.22-2.362-0.826-4.294-2.316-5.892c-1.88-2.014-5.107-1.429-5.959,1.02
		c-8.593,24.672-13.352,49.034-1.418,74.588c2.084,4.462,8.523,4.211,9.434-0.419c0.007-0.034,0.013-0.068,0.02-0.103
		c1.019-5.278,1.986-10.619,3.65-15.67c4.161-12.623,2.344-25.382-0.922-38.344C696.123,550.453,695.37,545.376,694.897,540.285z"/>
	<path fill="#F9F079" d="M781.162,1092.512c-0.944-22.629-12.359-83.481-15.802-100.087c-0.686-3.308-5.353-3.545-6.748-0.31
		c-0.01,0.023-0.02,0.047-0.03,0.07c-0.899,2.121-4.797,15.27-5.908,17.296c-1.504,2.745-2.598,5.913-6.206,7.318
		c-0.649-0.751-1.345-1.297-1.714-2.024c-5.028-9.914-10.072-19.821-14.989-29.796c-7.461-15.136-12.284-31.323-16.207-47.894
		c-3.725-15.739-6.362-31.539-4.189-48.256c1.274-9.793,3.629-19.129,8.752-27.896c2.107-3.606,4.153-7.244,6.159-10.778
		c0.695-1.224,0.5-2.73-0.522-3.561c-1.529-1.245-3.566-0.904-5.573-0.701c-9.236,0.933-15.384,7.28-20.961,13.763
		c-5.751,6.686-10.49,14.214-15.739,21.326c-2.424,3.286-5.008,6.46-8.164,10.513c-1.774-3.701-3.102-6.381-4.351-9.101
		c-1.544-3.366-2.753-6.933-4.584-10.118c-4.223-7.348-8.751-14.507-13.125-21.762c-8.123-13.472-14.851-27.605-17.166-43.813
		c-0.381-2.669-0.959-5.292-1.619-7.886c-3.036-11.94-2.406-24.129-0.474-36.475c0.5-3.194,1.045-6.503-0.096-9.568
		c-0.456-1.226-1.895-1.752-3.161-1.207c-3.798,1.635-5.93,4.819-7.958,8.035c-3.225,5.113-6.399,10.256-9.417,15.483
		c-2.484,4.302-5.359,8.52-7.13,13.076c-10.284,26.451-14.141,53.789-16.569,81.301c-0.198,2.247,0.592,4.681-1.983,7.934
		c-6.084-18.075-20.008-28.187-33.382-39.375c-1.405-1.175-3.619-0.678-4.631,1c-2.109,3.497-1.465,7.146-1.027,10.778
		c0.851,7.053,1.798,14.092,2.437,21.18c1.394,15.473-1.394,30.95-3.753,46.404c-0.474,3.102-1.246,6.33-2.632,9.18
		c-3.129,6.432-6.707,12.675-10.18,18.956c-0.252,0.455-1.131,0.598-2.321,1.181c-2.636-7.643-11.772-16.832-17.486-21.735
		c-1.52-1.305-3.963,0.255-3.523,2.248c1.147,5.184,2.226,9.93,2.9,14.761c0.672,4.81,0.553,9.815,0.449,14.751
		c-0.104,4.925-0.283,9.899-1.03,14.804c-2.925,19.217-9.744,37.521-17.505,55.557c-5.555,12.911-12.323,25.384-16.267,38.874
		c-0.677,2.314-1.842,4.519-3.032,7.373c-2.474-1.045-4.434-1.508-5.944-2.575c-6.197-4.377-12.265-8.926-18.362-13.436
		c-1.852-1.37-3.195-3.73-6.201-2.711c-2.898,4.561-3.579,9.181-2.817,16.211c1.26,11.632,3.66,22.933,6.781,34.014
		C492.89,1130.325,550.282,1150,619.797,1150c65.809,0,120.246-17.333,160.54-36.681
		C781.231,1106.376,781.451,1099.435,781.162,1092.512z"/>
</g>
</svg>
