<?xml version="1.0" encoding="utf-8"?>
<!-- Generator: Adobe Illustrator 22.1.0, SVG Export Plug-In . SVG Version: 6.00 Build 0)  -->
<svg version="1.1" id="Camada_1" xmlns="http://www.w3.org/2000/svg" xmlns:xlink="http://www.w3.org/1999/xlink" x="0px" y="0px"
	 viewBox="0 0 1280 1024" enable-background="new 0 0 1280 1024" xml:space="preserve">
<g>
	<g>
		<g>
			<path fill="#FFFFFF" d="M462.22437,512.28094c0,0-8.55927,2.94305-6.86496,7.84235
				c3.20282,9.26074,11.04361,36.36505,25.90826,68.36798c0,0,0.01147,5.19061,0.85962,9.26276
				c0.49948,2.3985,3.43069,3.37988,5.26849,1.75928c2.92786-2.58173,7.65363-7.50873,5.80591-14.26971
				c-3.33029-12.18622-9.55466-23.82019-10.84869-28.07373c-0.55045-1.80914,1.15469-4.78705,3.16922-0.57898
				c2.0145,4.20831,10.18298,26.0097,11.6575,29.27277c0.95526,2.11334,0.74161,5.89941,0.94302,9.29492
				c0.14111,2.38037,2.99188,3.52875,4.75815,1.92676c3.37732-3.06287,10.54092-9.77307,6.47797-17.10724
				c-11.32666-20.44531-19.89679-53.7923-21.9621-59.82971c-2.06549-6.03735-7.10431-15.84305-14.86642-12.97644
				L462.22437,512.28094z"/>
			<path fill="#E6E6E6" d="M460.50891,508.95142c0,0,0.90054,1.72397,1.26501,3.39038c0,0,6.19827-0.07092,8.89627-4.40967
				l-1.17468-2.74249L460.50891,508.95142z"/>
			<path fill="#FFFFFF" d="M471.94229,503.18365c-3.15616,6.17691-10.7222,8.62546-16.89893,5.4693
				c-6.17694-3.15634-8.62549-10.72238-5.46933-16.89932c3.15656-6.17654,10.72241-8.62527,16.89932-5.46893
				C472.65009,489.44086,475.09885,497.00693,471.94229,503.18365z"/>
			<path fill="#305477" d="M463.75085,497.46823c0.9707,4.84869-1.75418,9.48273-6.08658,10.35022
				c-4.33221,0.86752-8.63141-2.3602-9.60211-7.20886c-0.97107-4.84869,1.75421-9.48273,6.08643-10.34982
				C458.48077,489.39206,462.77979,492.61957,463.75085,497.46823z"/>
			<path fill="#305477" d="M467.3385,496.19751c-0.76038,1.48816-0.27374,3.25815,1.08731,3.9537
				c1.36066,0.69516,3.08026,0.05258,3.84064-1.43536c0.76059-1.48834,0.27396-3.25815-1.0871-3.95352
				C469.8187,494.0668,468.09909,494.70956,467.3385,496.19751z"/>
			<path fill="#467BA1" d="M467.92099,496.495c-0.76038,1.48834-0.27356,3.25854,1.08713,3.9537
				c1.36105,0.69534,3.08063,0.05295,3.84103-1.43539c0.76038-1.48813,0.27353-3.25815-1.08713-3.95331
				C470.40097,494.36447,468.68137,495.00705,467.92099,496.495z"/>
			<path fill="#FFFFFF" d="M469.46646,497.23065c-0.43445,0.85052-0.15634,1.86212,0.62143,2.25922
				c0.77777,0.39749,1.76031,0.03024,2.19498-0.82028c0.43445-0.85031,0.15634-1.86172-0.62143-2.25919
				C470.88385,496.01291,469.90131,496.38016,469.46646,497.23065z"/>
			<path fill="#DBDBDB" d="M458.25189,488.06876c-2.21075-0.64359-4.14264-0.51114-5.73337-0.07214
				c-0.62283,0.54175-1.19543,1.14975-1.71011,1.82059c1.6601-0.88174,4.13354-1.62155,7.15115-0.74338
				c5.56952,1.62039,8.37131,7.05847,6.66278,12.92902c-1.40909,4.84216-4.34171,7.07507-9.11234,6.85944
				c0.86929,0.40085,1.76074,0.69498,2.66245,0.8855c3.7236-0.63446,6.18799-3.09863,7.45535-7.45279
				C467.50534,495.84232,464.40213,489.85971,458.25189,488.06876z"/>
			<path fill="#FFFFFF" d="M458.17639,515.44617c0,0-15.05579,14.95184-13.52576,43.50787l6.60504-0.92023
				c0,0,0.63705-18.85992,10.89221-25.79779L458.17639,515.44617z"/>
			<path fill="#FFFFFF" d="M451.25568,558.03381c0,0,2.38492,8.69641,1.26776,9.46411
				c-1.11734,0.76788-2.22342-1.6795-2.22342-1.6795s-0.43326,1.28479-1.63422,1.45197
				c-1.20074,0.16724-1.40631-2.40564-1.40631-2.40564s-0.56232,1.45575-1.78403,1.47296
				c-1.22192,0.01697-0.82483-7.38367-0.82483-7.38367L451.25568,558.03381z"/>
			<path fill="#FFFFFF" d="M480.95242,525.20679c0,0,16.29984-13.58545,17.25986-42.1662l-6.66022,0.34213
				c0,0-2.27521,18.73318-13.09543,24.75259L480.95242,525.20679z"/>
			<path fill="#FFFFFF" d="M491.55206,483.38272c0,0-1.61899-8.87097-0.43918-9.53845
				c1.1796-0.66766,2.06885,1.86667,2.06885,1.86667s0.54297-1.24185,1.75421-1.30432
				c1.21082-0.06207,1.19165,2.51871,1.19165,2.51871s0.68665-1.40097,1.9054-1.31183
				c1.21893,0.08914,0.17929,7.42709,0.17929,7.42709L491.55206,483.38272z"/>
		</g>
		<path fill="#D9D9D9" d="M478.0621,537.32465l-7.76944,2.69781c-2.30487,0.80011-4.83069-0.42438-5.63101-2.72925l-3.08795-8.89368
			c-0.80032-2.30487,0.42297-4.83148,2.72784-5.63159l7.76923-2.69763c2.30487-0.80029,4.8317,0.42401,5.63199,2.72882
			l3.08798,8.89392C481.59103,533.99792,480.36694,536.52435,478.0621,537.32465z M464.82254,524.26831
			c-1.47687,0.51294-2.26175,2.13251-1.74866,3.61017l3.08798,8.89374c0.51312,1.47784,2.1329,2.26276,3.60977,1.74982
			l7.76926-2.69781c1.47784-0.51306,2.26236-2.13269,1.74963-3.61053l-3.08838-8.89374
			c-0.51309-1.47742-2.13269-2.26233-3.61017-1.74921L464.82254,524.26831z"/>
		<path fill="#D9D9D9" d="M468.6976,531.53949c-0.93057,0.32294-1.95108-0.17157-2.27405-1.10217l-0.91177-2.62561
			c-0.32278-0.93036,0.17157-1.95105,1.10211-2.27405c0.93039-0.32275,1.95087,0.17157,2.27405,1.10193l0.91156,2.62567
			C470.12268,530.1958,469.62814,531.21631,468.6976,531.53949z M466.87421,526.28815
			c-0.51706,0.1795-0.79181,0.74579-0.61194,1.26324l0.91159,2.62567c0.17947,0.51703,0.74594,0.79156,1.26343,0.61212
			c0.51706-0.17969,0.7916-0.74615,0.61194-1.26343l-0.9118-2.62567C467.95795,526.38306,467.39166,526.10828,466.87421,526.28815z"
			/>
		<path fill="#D9D9D9" d="M472.68707,526.68665c-0.87918,0.30518-1.84256-0.1615-2.14792-1.04065
			c-0.30521-0.87939,0.16147-1.84253,1.04083-2.14771c0.87918-0.30542,1.84235,0.16125,2.14752,1.04041
			C474.0329,525.41809,473.56604,526.38129,472.68707,526.68665z M471.8403,524.24854
			c-0.46527,0.1615-0.71255,0.67163-0.55106,1.13696c0.16168,0.46509,0.67181,0.71234,1.13712,0.55066
			c0.46527-0.1615,0.71255-0.67163,0.55106-1.1369C472.81592,524.33417,472.30557,524.08685,471.8403,524.24854z"/>
		<path fill="#D9D9D9" d="M473.98941,530.43732c-0.87936,0.30542-1.84253-0.16144-2.14774-1.04041
			c-0.30536-0.87921,0.16168-1.84235,1.04047-2.14795c0.87936-0.30499,1.84256,0.16168,2.14792,1.04083
			C475.33527,529.16901,474.86859,530.13214,473.98941,530.43732z M473.14285,527.99945
			c-0.46527,0.1615-0.71255,0.67188-0.55087,1.13672c0.1615,0.46527,0.67163,0.71259,1.13693,0.55109
			c0.46527-0.1615,0.71234-0.67181,0.55066-1.13715C474.11807,528.08502,473.60794,527.83795,473.14285,527.99945z"/>
		<path fill="#D9D9D9" d="M475.29156,534.18848c-0.87878,0.30536-1.84213-0.1615-2.14752-1.04089
			c-0.30518-0.87878,0.16147-1.84216,1.04065-2.14752c0.87897-0.30518,1.84256,0.1615,2.14774,1.04065
			C476.6376,532.9201,476.17093,533.88324,475.29156,534.18848z M474.44519,531.75018
			c-0.46527,0.16168-0.71252,0.67181-0.55106,1.13708c0.16168,0.46527,0.67184,0.71259,1.13712,0.55109
			c0.46527-0.16168,0.71255-0.67181,0.55109-1.13715C475.42062,531.83594,474.91049,531.58868,474.44519,531.75018z"/>
		<path fill="#D9D9D9" d="M471.19693,535.82031l-1.24521,0.43243c-0.94955,0.32971-1.98981-0.17432-2.31931-1.12384l-0.0419-0.12018
			c-0.32968-0.94934,0.17435-1.98962,1.12387-2.31952l1.24524-0.43207c0.94974-0.33008,1.98981,0.17438,2.31967,1.12347
			l0.04172,0.12036C472.65048,534.45013,472.14667,535.4906,471.19693,535.82031z M468.9747,533.43976
			c-0.53525,0.18579-0.81989,0.77283-0.63409,1.30847l0.04193,0.12018c0.18597,0.53564,0.77322,0.82007,1.30887,0.63428
			l1.24521-0.4325c0.53564-0.18597,0.82028-0.77325,0.63428-1.3089l-0.0419-0.12018
			c-0.18579-0.5354-0.77322-0.81982-1.30865-0.63385L468.9747,533.43976z"/>
		<path fill="#D9D9D9" d="M501.28915,562.47113c-0.15039-0.38025-0.29944-0.76154-0.44846-1.14301
			c-5.26376,0.84216-9.23782,3.71967-11.21597,5.30347c0.15042,0.38403,0.30203,0.77185,0.4548,1.16302
			C491.88907,566.32367,495.91748,563.25385,501.28915,562.47113z M444.81055,548.80328
			c1.69568,1.71686,3.98572,3.5722,6.89185,4.78778c0.05457-0.38483,0.11188-0.77441,0.18106-1.1936
			c-3.01028-1.31006-5.29007-3.35797-6.91714-5.14398C444.91077,547.76617,444.85562,548.27832,444.81055,548.80328z
			 M478.36768,582.10205c0.16385,0.36804,0.32773,0.7359,0.49353,1.10571c2.77728-1.89569,7.16324-4.15094,12.51181-3.84161
			c-0.13818-0.40222-0.27554-0.80371-0.41727-1.20135C485.59079,577.995,481.20639,580.19214,478.36768,582.10205z
			 M485.6402,565.08197c-0.18381-0.41766-0.36072-0.81964-0.53564-1.21594c-5.47269-0.22217-9.93948,2.03107-12.80588,3.9679
			c0.15338,0.37811,0.30182,0.74933,0.45697,1.12958C475.5766,567.02332,480.10684,564.67065,485.6402,565.08197z
			 M490.52112,488.61487c-0.09232,0.371-0.1947,0.75839-0.30243,1.15411c1.85855,0.77225,4.18161,2.47366,6.42776,6.04803
			c0.11661-0.53958,0.22888-1.08414,0.33441-1.63934C494.73254,490.96735,492.42276,489.36911,490.52112,488.61487z
			 M495.96375,582.90417c0.16684,0.41901,0.32059,0.80383,0.46252,1.15546c1.95715-1.58698,6.3732-4.91193,12.21902-5.40369
			c-0.20218-0.37891-0.40399-0.75977-0.60443-1.14618C502.36679,578.13708,498.07095,581.22174,495.96375,582.90417z
			 M449.0473,530.57233c1.14243,3.05713,3.03656,6.70764,6.13364,10.51727c0.18182-0.3963,0.38641-0.7829,0.58524-1.17169
			c-3.20795-4.07269-5.0137-7.96393-6.01978-11.04523C449.50922,529.41925,449.27814,529.99323,449.0473,530.57233z
			 M485.51984,501.0047c-0.21307,0.34116-0.43246,0.67776-0.65979,1.00922c2.07639,0.81079,4.77063,2.76303,7.29785,7.2832
			c0.20041-0.43127,0.39709-0.87601,0.59335-1.32547C490.28351,503.86694,487.66144,501.90045,485.51984,501.0047z"/>
	</g>
	<path fill="#FFFFFF" d="M824.92664,418.16101c-19.99524,31.84308-65.78784,49.54507-106.51569,41.17578
		c-46.73462-9.60883-55.32611,28.14648-64.41943,68.11475c-5.24438,23.05554-10.66846,46.89673-23.53143,63.69269
		c-6.64001,8.66779-13.74713,13.01556-21.73041,13.29352c-19.20972,0.70343-39.77716-22.7381-58.00433-43.38379
		c-10.32001-11.68854-20.06757-22.72937-28.63214-28.43903c-30.08258-20.05804-45.56195,0.33978-45.71552,0.54712l1.59448,1.16968
		c0.14093-0.19489,14.49307-19.09467,43.02484-0.07233c8.3501,5.56677,18.01465,16.51312,28.24689,28.10321
		c18.25208,20.67456,38.90369,44.06708,58.69043,44.0661c0.28754-0.00098,0.57715-0.00574,0.86469-0.01544
		c8.49109-0.29529,16.30658-5.02814,23.22845-14.06653c13.1275-17.13849,18.59955-41.19391,23.8924-64.45697
		c9.25543-40.68933,17.23492-75.83481,62.09338-66.61716c41.49615,8.52686,88.1806-9.55545,108.58691-42.06046
		c11.79486-18.78577,12.46533-38.64554,2.1485-56.74686H826.427C836.94843,380.18311,836.51318,399.70633,824.92664,418.16101z"/>
</g>
</svg>
