<?xml version="1.0" encoding="utf-8"?>
<!-- Generator: Adobe Illustrator 22.1.0, SVG Export Plug-In . SVG Version: 6.00 Build 0)  -->
<svg version="1.1" id="Camada_1" xmlns="http://www.w3.org/2000/svg" xmlns:xlink="http://www.w3.org/1999/xlink" x="0px" y="0px"
	 viewBox="0 0 800 500" enable-background="new 0 0 800 500" xml:space="preserve">
<g>
	<path fill="#CA4444" d="M60.75194,444.15637c-3.12695-18.3446-4.72652-37.01016-4.72652-55.91562
		c0-45.45529,9.09251-89.53979,27.02326-131.0293c17.32322-40.0838,42.12919-76.08612,73.72428-107.00929
		c31.59514-30.92152,68.38347-55.19859,109.34209-72.15248c42.39349-17.54846,87.43658-26.44541,133.88034-26.44541
		c46.44708,0,91.49017,8.89695,133.8837,26.44541c40.95862,16.95389,77.74695,41.23096,109.34204,72.15248
		c31.59509,30.92317,56.40106,66.92549,73.72424,107.00929c17.93079,41.4895,27.02313,85.57401,27.02313,131.0293
		c0,18.90546-1.59607,37.57101-4.72632,55.91562h20.28192C762.4588,425.93765,764,407.26559,764,388.24075
		C764,191.49353,601.03021,32,399.99539,32C198.96722,32,35.99408,191.49353,35.99408,388.24075
		c0,19.02484,1.54123,37.6969,4.47592,55.91562H60.75194z"/>
	<path fill="#ECB44D" d="M81.06477,444.15637c-3.32598-18.32104-5.00779-36.99158-5.00779-55.91562
		c0-42.80817,8.56372-84.32468,25.44772-123.3989c16.31413-37.74919,39.67483-71.65524,69.43363-100.77788
		c29.75551-29.12279,64.40195-51.98373,102.97176-67.95021C313.83551,79.58659,356.25644,71.207,399.99539,71.207
		c43.74228,0,86.16321,8.37959,126.0853,24.90677c38.57312,15.96648,73.21625,38.82742,102.97504,67.95021
		c29.75879,29.12263,53.11951,63.02869,69.43365,100.77788c16.88385,39.07422,25.44775,80.59073,25.44775,123.3989
		c0,18.92404-1.67847,37.59457-5.00452,55.91562h20.28546c3.10638-18.19016,4.75043-36.86398,4.75043-55.91562
		c0-185.92053-154.00079-336.63647-343.97311-336.63647c-189.96544,0-343.96997,150.71594-343.96997,336.63647
		c0,19.05164,1.64421,37.72546,4.75055,55.91562H81.06477z"/>
	<path fill="#F6E253" d="M101.4497,444.15637c-3.55254-18.29593-5.36142-36.96802-5.36142-55.91562
		c0-40.16104,8.03176-79.11108,23.87579-115.76675c15.30486-35.41615,37.2207-67.22615,65.13987-94.54836
		c27.91214-27.32205,60.41685-48.77231,96.60452-63.75105c37.45419-15.50434,77.25275-23.36486,118.28693-23.36486
		c41.03751,0,80.83606,7.86052,118.29025,23.36486c36.18768,14.97874,68.68884,36.429,96.60803,63.75105
		c27.91553,27.3222,49.8313,59.1322,65.13635,94.54836c15.84381,36.65567,23.87579,75.60571,23.87579,115.76675
		c0,18.9476-1.81244,37.61969-5.36499,55.91562h20.37128c3.30194-18.15146,5.02502-36.83713,5.02502-55.91562
		c0-175.09384-145.03198-317.03546-323.94174-317.03546c-178.90291,0-323.93842,141.94162-323.93842,317.03546
		c0,19.07849,1.72641,37.76416,5.02501,55.91562H101.4497z"/>
	<path fill="#A2D75E" d="M121.61162,444.15637c-3.80666-18.26395-5.73223-36.94461-5.73223-55.91562
		c0-37.5459,7.51018-73.95978,22.32087-108.22702c14.30614-33.10834,34.79756-62.84738,60.89754-88.39087
		c26.09976-25.54349,56.48332-45.59459,90.31291-59.59744c35.01724-14.49493,72.22086-21.84326,110.58469-21.84326
		c38.36365,0,75.57077,7.34834,110.5845,21.84326c33.82959,14.00285,64.21667,34.05396,90.31641,59.59744
		c26.09998,25.54349,46.59119,55.28253,60.89752,88.39087c14.81067,34.26724,22.32068,70.68112,22.32068,108.22702
		c0,18.97101-1.92206,37.65167-5.73206,55.91562h20.38159c3.51477-18.11447,5.38202-36.80188,5.38202-55.91562
		c0-164.39461-136.17322-297.66287-304.15067-297.66287c-167.97427,0-304.14383,133.26826-304.14383,297.66287
		c0,19.11374,1.8637,37.80115,5.37846,55.91562H121.61162z"/>
	<path fill="#5E82D8" d="M142.14751,444.15637c-4.07426-18.1582-6.17491-36.87909-6.17491-55.91562
		c0-69.02002,27.46594-133.90654,77.33171-182.71083c49.86922-48.80412,116.17262-75.68123,186.69109-75.68123
		c70.52515,0,136.82516,26.87711,186.69424,75.68123c49.86926,48.80429,77.33167,113.69081,77.33167,182.71083
		c0,19.03653-2.10059,37.75742-6.17139,55.91562h20.45361c3.76874-18.06409,5.74927-36.76318,5.74927-55.91562
		c0-153.53438-127.17682-277.99634-284.0574-277.99634c-156.87395,0-284.05063,124.46196-284.05063,277.99634
		c0,19.15244,1.98039,37.85153,5.7491,55.91562H142.14751z"/>
	<path fill="#74B6E3" d="M162.03474,444.15637c-4.40361-18.10449-6.68631-36.83713-6.68631-55.91562
		c0-63.95435,25.44777-124.08084,71.658-169.30255c46.20685-45.22154,107.64316-70.12677,172.98895-70.12677
		c65.34912,0,126.78543,24.90523,172.99564,70.12677c46.20685,45.22171,71.6546,105.34821,71.6546,169.30255
		c0,19.07849-2.28265,37.81113-6.68982,55.91562h20.51886c4.04669-18.01044,6.20233-36.71622,6.20233-55.91562
		c0-143.06198-118.50311-259.03357-264.68161-259.03357c-146.17517,0-264.67828,115.9716-264.67828,259.03357
		c0,19.1994,2.15208,37.90518,6.20236,55.91562H162.03474z"/>
	<path fill="#976AC7" d="M182.01131,444.15637c-4.79506-18.03555-7.28352-36.7883-7.28352-55.91562
		c0-58.88867,23.43298-114.25342,65.98079-155.89427c42.55132-41.6424,99.12038-64.57402,159.28682-64.57402
		c60.1731,0,116.74234,22.93163,159.29013,64.57402c42.55133,41.64085,65.98077,97.0056,65.98077,155.89427
		c0,19.12732-2.48511,37.88007-7.28351,55.91562h20.61151c4.37286-17.94321,6.70331-36.66238,6.70331-55.91562
		c0-132.58807-109.82935-240.07256-245.30222-240.07256c-135.46954,0-245.29907,107.48448-245.29907,240.07256
		c0,19.25323,2.33411,37.97241,6.70682,55.91562H182.01131z"/>
</g>
<path fill="#F3FAFA" d="M47.85484,396.60983c1.93113,0,3.46534,0.37021,4.9994,0.52972
	c6.18213-24.77988,28.26379-43.31671,55.08869-43.31671c8.32558,0,16.46362,1.90442,23.50966,5.43216
	c9.65675-12.43451,24.40027-20.56473,41.29662-20.56473c22.86603,0,42.20435,14.83261,49.37373,35.18631
	c2.4528-0.37018,4.74469-0.65305,7.39908-0.65305c28.99492,0,52.47798,23.47382,52.47798,52.27496
	c0,29.18866-23.48306,52.66406-52.47798,52.66406c-6.06647,0-11.66739-1.19986-17.05424-3.03403
	c-7.56612,10.19394-19.76163,16.79013-33.49277,16.79013c-14.2498,0-26.82491-7.1788-34.42705-18.09476
	c-7.63667,10.91595-20.14141,18.09476-34.44431,18.09476c-15.4591,0-28.75588-8.25375-35.93472-20.47562
	c-7.31013,5.87274-16.2793,9.32849-26.31409,9.32849c-23.27991,0-42.06355-18.78207-42.06355-42.04486
	C5.79129,415.48102,24.57493,396.60983,47.85484,396.60983z"/>
<path fill="#F3FAFA" d="M548.85486,396.60983c1.93109,0,3.46533,0.37021,4.99939,0.52972
	c6.18213-24.77988,28.26379-43.31671,55.08868-43.31671c8.32556,0,16.46362,1.90442,23.50964,5.43216
	c9.6568-12.43451,24.40027-20.56473,41.29663-20.56473c22.86603,0,42.20435,14.83261,49.37372,35.18631
	c2.45282-0.37018,4.74469-0.65305,7.39911-0.65305c28.99487,0,52.47797,23.47382,52.47797,52.27496
	c0,29.18866-23.48309,52.66406-52.47797,52.66406c-6.06647,0-11.66742-1.19986-17.05426-3.03403
	c-7.5661,10.19394-19.7616,16.79013-33.49274,16.79013c-14.24982,0-26.82495-7.1788-34.42706-18.09476
	c-7.63666,10.91595-20.14142,18.09476-34.44434,18.09476c-15.45911,0-28.75586-8.25375-35.93469-20.47562
	c-7.31012,5.87274-16.2793,9.32849-26.31409,9.32849c-23.27991,0-42.06357-18.78207-42.06357-42.04486
	C506.79129,415.48102,525.57495,396.60983,548.85486,396.60983z"/>
</svg>
