<?xml version="1.0" encoding="utf-8"?>
<!-- Generator: Adobe Illustrator 22.1.0, SVG Export Plug-In . SVG Version: 6.00 Build 0)  -->
<svg version="1.1" id="Camada_1" xmlns="http://www.w3.org/2000/svg" xmlns:xlink="http://www.w3.org/1999/xlink" x="0px" y="0px"
	 viewBox="0 0 500 500" enable-background="new 0 0 500 500" xml:space="preserve">
<g>
	
		<radialGradient id="SVGID_1_" cx="112.58975" cy="236.29692" r="97.17328" gradientTransform="matrix(3.7037 0 0 -3.7037 -166.38148 1125.23254)" gradientUnits="userSpaceOnUse">
		<stop  offset="0.01075" style="stop-color:#D0542B"/>
		<stop  offset="0.11351" style="stop-color:#D87A32"/>
		<stop  offset="0.22904" style="stop-color:#DF9F39"/>
		<stop  offset="0.29032" style="stop-color:#E2AD3C"/>
		<stop  offset="0.33615" style="stop-color:#E5B83E"/>
		<stop  offset="0.45813" style="stop-color:#ECCE44"/>
		<stop  offset="0.59018" style="stop-color:#F0DE47"/>
		<stop  offset="0.73825" style="stop-color:#F3E849"/>
		<stop  offset="0.93548" style="stop-color:#F4EB4A"/>
	</radialGradient>
	<path fill="url(#SVGID_1_)" d="M455.6633,271.84595c36.05945-19.21741,37.01572-52.40485,37.01572-52.40485
		c-16.34241,22.11426-54.33087,12.00833-75.50418,0c-4.59451-2.61172-9.21149-3.60275-13.67688-3.74271
		c7.28677-5.13492,14.23553-11.75575,20.17352-19.16882c22.44217-28.0255,11.68903-55.15059,11.68903-55.15059
		c-5.02466,21.45842-33.76556,27.4371-54.93869,26.55559c13.52084-9.5226,24.56995-27.72432,30.58862-47.44957
		c11.90878-39.09273-10.88745-63.23257-10.88745-63.23257c4.08383,27.19479-29.91678,46.90919-53.37463,53.39066
		c-5.09732,1.39725-9.05771,3.96841-12.32242,7.0183c1.50464-8.78714,1.73035-18.38239,0.68567-27.82387
		c-3.9155-35.68075-30.70184-47.26385-30.70184-47.26385c11.62085,18.72769-4.50092,43.30272-20.07501,57.6384
		c2.8165-16.28355-2.21918-36.97873-11.93567-55.1855C253.18182,8.9677,220.00018,8,220.00018,8
		c22.11426,16.35309,12.00833,54.33875,0,75.50404c-2.61455,4.59749-3.60854,9.20865-3.75356,13.67406
		c-5.13208-7.2948-11.76378-14.23257-19.17967-20.16861c-28.01167-22.45228-55.13187-11.70924-55.13187-11.70924
		c21.46349,5.0508,27.4343,33.8076,26.55856,54.96709c-9.5067-13.52087-27.71422-24.57504-47.45255-30.58864
		c-39.08544-11.91681-63.23613,10.86918-63.23613,10.86918c27.21143-4.07063,46.91498,29.93281,53.39066,53.38993
		c1.40006,5.09731,3.96038,9.05769,7.0024,12.30638c-8.77852-1.51254-18.35193-1.73318-27.80499-0.6906
		c-35.6641,3.9525-47.26682,30.70184-47.26682,30.70184c18.73125-11.58383,43.28756,4.51176,57.63321,20.09596
		c-16.28564-2.81856-36.95392,2.22498-55.16946,11.92186c-36.05947,19.21741-37.0346,52.40469-37.0346,52.40469
		c16.36617-22.11426,54.34678-12.00818,75.51221,0c4.59229,2.61395,9.20345,3.60275,13.6696,3.74271
		c-7.2905,5.1373-14.23911,11.75516-20.17441,19.17181c-22.42836,28.02252-11.69112,55.14777-11.69112,55.14777
		c5.04353-21.45056,33.76763-27.43207,54.94391-26.55576c-13.52666,9.52557-24.57592,27.7215-30.58655,47.45181
		c-11.89794,39.08765,10.88017,63.23553,10.88017,63.23553c-4.06854-27.19998,29.92776-46.91425,53.37387-53.38992
		c5.09731-1.4032,9.07732-3.97137,12.33328-7.02426c-1.53365,8.78641-1.74121,18.38745-0.69283,27.82684
		c3.92264,35.67795,30.70184,47.26892,30.70184,47.26892c-11.62158-18.73633,4.50017-43.31149,20.07129-57.64346
		c-2.81349,16.2858,2.23018,36.97516,11.93568,55.18268c19.21741,36.06451,52.3989,37.02658,52.3989,37.02658
		c-22.10266-16.35324-12.00833-54.33594,0-75.50418c2.61752-4.59735,3.60855-9.19766,3.75357-13.66083
		c5.14383,7.28958,11.76453,14.22751,19.18039,20.16846c27.99579,22.43921,55.13113,11.70212,55.13113,11.70212
		c-21.44177-5.03268-27.43353-33.80554-26.55783-54.9628c9.50894,13.51062,27.71347,24.578,47.45761,30.58862
		c39.09064,11.90598,63.23032-10.87943,63.23032-10.87943c-27.19254,4.08163-46.91483-29.92477-53.3905-53.39066
		c-1.3974-5.08856-3.96054-9.04968-7.00241-12.30563c8.78119,1.52054,18.37943,1.74625,27.82669,0.69788
		c35.67288-3.94955,47.24796-30.70898,47.24796-30.70898c-18.71237,11.59677-43.28757-4.50314-57.63037-20.09598
		C416.76059,286.5972,437.45578,281.54846,455.6633,271.84595z M248.74332,395.66949
		c-80.978,0-146.62141-65.64255-146.62141-146.61771c0-80.97784,65.64342-146.62051,146.62141-146.62051
		c80.95319,0,146.61829,65.64267,146.61829,146.62051C395.3616,330.02695,329.6965,395.66949,248.74332,395.66949z"/>
	
		<radialGradient id="SVGID_2_" cx="112.083" cy="236.56824" r="48.62422" gradientTransform="matrix(3.7037 0 0 -3.7037 -166.38148 1125.23254)" gradientUnits="userSpaceOnUse">
		<stop  offset="0.06452" style="stop-color:#F4EB4A"/>
		<stop  offset="0.26175" style="stop-color:#F3E849"/>
		<stop  offset="0.40982" style="stop-color:#F0DE47"/>
		<stop  offset="0.54187" style="stop-color:#ECCE44"/>
		<stop  offset="0.66385" style="stop-color:#E5B83E"/>
		<stop  offset="0.70968" style="stop-color:#E2AD3C"/>
		<stop  offset="0.77096" style="stop-color:#DF9F39"/>
		<stop  offset="0.88649" style="stop-color:#D87A32"/>
		<stop  offset="0.98925" style="stop-color:#D0542B"/>
	</radialGradient>
	<path fill="url(#SVGID_2_)" d="M377.82092,249.05179c0,71.29343-57.79443,129.08563-129.07761,129.08563
		c-71.28111,0-129.08356-57.79221-129.08356-129.08563c0-71.2912,57.80244-129.07968,129.08356-129.07968
		C320.02649,119.97211,377.82092,177.76057,377.82092,249.05179z"/>
</g>
</svg>
